# xmcd
#
# Track frame offsets: 
#        150
#        13693
#        23837
#        33864
#        43384
#        53941
#        62933
#        75011
#        85900
#        97785
#        111309
#        121971
#        132928
#        142379
#        151641
#        162923
#        173086
#        184063
#        194731
#        205948
#        215716
#        225074
#        236405
#        248493
#        261614
#        272001
#        281990
#        294020
#
# Disc length: 4071 seconds
#
# Revision: 0
# Processed by: cddbd v1.5.1PL0 Copyright (c) Steve Scherf et al.
# Submitted via: ExactAudioCopy v0.95a5
#
DISCID=8b0fe51c
DTITLE=Sonny James - Young Love - The Complete Recordings 1952-1962 (C
DTITLE=D 2)
DYEAR=2002
DGENRE=Country
TTITLE0=Deceive Me Once Again
TTITLE1=Lovin' Season
TTITLE2=Here I Go (Falling For You Again)
TTITLE3=Ain't Gonna Take No Chance (On Losing You)
TTITLE4=Let's Go Bunny-Huggin'
TTITLE5=Pigtails And Ribbons
TTITLE6=Too Much
TTITLE7=Careless With My Heart
TTITLE8=My Stolen Love
TTITLE9=My God And I
TTITLE10=May God Be With You
TTITLE11=For Rent (One Empty Heart)
TTITLE12=Twenty Feet Of Muddy Water
TTITLE13=All Mixed Up
TTITLE14=I'll Always Wonder (But I'll Never Know)
TTITLE15=Hello Old Broken Heart
TTITLE16=Forgive Me
TTITLE17=I Can't Stop Loving You
TTITLE18=I Got The Feeling
TTITLE19=Just Ask Your Heart
TTITLE20=Can't Get Over Missin' You
TTITLE21=The Cat Came Back
TTITLE22=Only One Heart To Give
TTITLE23=Cold, Cold Heart
TTITLE24=Lonesome
TTITLE25=In My Heart
TTITLE26=Only A Shadow Between
TTITLE27=I Wish I Knew
EXTD=
EXTT0=
EXTT1=
EXTT2=
EXTT3=
EXTT4=
EXTT5=
EXTT6=
EXTT7=
EXTT8=
EXTT9=
EXTT10=
EXTT11=
EXTT12=
EXTT13=
EXTT14=
EXTT15=
EXTT16=
EXTT17=
EXTT18=
EXTT19=
EXTT20=
EXTT21=
EXTT22=
EXTT23=
EXTT24=
EXTT25=
EXTT26=
EXTT27=
PLAYORDER=
